<svg data-v-423bf9ae="" xmlns="http://www.w3.org/2000/svg" viewBox="0 0 536.4608630722462 192" class="iconAboveSlogan"><!----><!----><defs data-v-423bf9ae=""><linearGradient data-v-423bf9ae="" gradientTransform="rotate(25)" id="dd380b30-dc6c-4d69-8ab5-fba1a23e46d7" x1="0%" y1="0%" x2="100%" y2="0%"><stop data-v-423bf9ae="" offset="0%" style="stop-color: rgb(255, 239, 0); stop-opacity: 1;"></stop><stop data-v-423bf9ae="" offset="100%" style="stop-color: rgb(0, 255, 247); stop-opacity: 1;"></stop></linearGradient></defs><g data-v-423bf9ae="" id="f3f207c7-04e1-4a4a-b540-010e55cf74b2" fill="url(#dd380b30-dc6c-4d69-8ab5-fba1a23e46d7)" transform="matrix(6.349206477356088,0,0,6.349206477356088,-0.17404737544643467,103.0634956353017)"><path d="M3.82 9.04C3.88 9.25 4.10 9.44 4.31 9.44L4.72 9.44C5.05 9.44 5.28 9.14 5.21 8.82L3.28 0.39C3.23 0.18 3.00 0 2.79 0L2.48 0C2.27 0 2.04 0.18 1.99 0.39L0.71 5.87L0.04 8.83C-0.03 9.16 0.20 9.44 0.53 9.44L0.94 9.44C1.15 9.44 1.37 9.25 1.43 9.04L1.92 6.86L3.35 6.86ZM2.63 3.23C2.90 4.42 2.87 4.80 3.02 5.47L2.24 5.47ZM10.09 8.55C10.09 8.27 9.87 8.05 9.59 8.05L7.50 8.05L7.50 0.50C7.50 0.22 7.28 0 7.01 0L6.61 0C6.33 0 6.10 0.22 6.10 0.50L6.10 8.93C6.10 9.21 6.33 9.44 6.61 9.44L9.59 9.44C9.87 9.44 10.09 9.21 10.09 8.93ZM14.78 8.55C14.78 8.27 14.56 8.05 14.28 8.05L12.19 8.05L12.19 0.50C12.19 0.22 11.97 0 11.70 0L11.30 0C11.02 0 10.79 0.22 10.79 0.50L10.79 8.93C10.79 9.21 11.02 9.44 11.30 9.44L14.28 9.44C14.56 9.44 14.78 9.21 14.78 8.93ZM22.33 9.04C22.39 9.25 22.61 9.44 22.82 9.44L23.23 9.44C23.56 9.44 23.79 9.14 23.72 8.82L21.78 0.39C21.74 0.18 21.50 0 21.29 0L20.99 0C20.78 0 20.55 0.18 20.50 0.39L19.22 5.87L18.55 8.83C18.48 9.16 18.70 9.44 19.04 9.44L19.45 9.44C19.66 9.44 19.88 9.25 19.94 9.04L20.43 6.86L21.85 6.86ZM21.14 3.23C21.41 4.42 21.38 4.80 21.53 5.47L20.75 5.47ZM26.68 9.44C28.32 9.44 29.05 8.54 29.05 6.73C29.05 5.88 28.81 5.17 28.45 4.72L28.45 4.72C28.45 4.72 29.05 4.00 29.05 2.70C29.05 0.90 28.32 0 26.68 0L25.30 0C25.02 0 24.79 0.22 24.79 0.50L24.79 8.93C24.79 9.21 25.02 9.44 25.30 9.44ZM26.68 1.39C27.37 1.39 27.65 1.76 27.65 2.70C27.65 3.64 27.37 4.02 26.68 4.02L26.19 4.02L26.19 1.39ZM26.68 5.40C27.37 5.40 27.65 5.78 27.65 6.73C27.65 7.67 27.37 8.05 26.68 8.05L26.19 8.05L26.19 5.40ZM30.11 6.69C30.11 7.80 30.42 8.44 30.86 8.88C31.32 9.32 31.91 9.44 32.41 9.44C32.93 9.44 33.52 9.32 33.98 8.88C34.41 8.44 34.71 7.80 34.71 6.69L34.71 2.73C34.71 0.95 33.95 0 32.41 0C30.88 0 30.11 0.97 30.11 2.73ZM31.51 2.73C31.51 1.82 31.79 1.39 32.41 1.39C33.01 1.39 33.31 1.79 33.31 2.73L33.31 6.69C33.31 7.64 33.00 8.05 32.41 8.05C31.81 8.05 31.51 7.62 31.51 6.69ZM35.70 6.86C35.70 8.34 36.32 9.42 38.00 9.42C39.62 9.42 40.29 8.43 40.29 6.86L40.29 0.49C40.29 0.21 40.07-0.01 39.79-0.01L39.40-0.01C39.13-0.01 38.91 0.21 38.91 0.49L38.91 6.86C38.91 7.53 38.71 8.04 38.00 8.04C37.31 8.04 37.09 7.60 37.09 6.86L37.09 0.49C37.09 0.21 36.86-0.01 36.58-0.01L36.19-0.01C35.92-0.01 35.70 0.21 35.70 0.49ZM41.47 0.88C41.47 1.16 41.69 1.39 41.97 1.39L43.11 1.39L43.11 8.92C43.11 9.20 43.33 9.42 43.61 9.42L43.99 9.42C44.27 9.42 44.49 9.20 44.49 8.92L44.49 1.39L45.64 1.39C45.92 1.39 46.14 1.16 46.14 0.88L46.14 0.49C46.14 0.21 45.92-0.01 45.64-0.01L41.97-0.01C41.69-0.01 41.47 0.21 41.47 0.49ZM52.11 5.40C53.82 5.40 54.57 4.51 54.57 2.70C54.57 0.90 53.82 0 52.11 0L50.60 0C50.32 0 50.09 0.22 50.09 0.50L50.09 8.93C50.09 9.21 50.32 9.44 50.60 9.44L50.99 9.44C51.25 9.44 51.48 9.21 51.48 8.93L51.48 5.40ZM52.11 1.39C52.86 1.39 53.17 1.76 53.17 2.70C53.17 3.61 52.86 4.02 52.11 4.02L51.48 4.02L51.48 1.39ZM56.03 0C55.75 0 55.52 0.22 55.52 0.50L55.52 8.93C55.52 9.21 55.75 9.44 56.03 9.44L59.05 9.44C59.33 9.44 59.56 9.21 59.56 8.93L59.56 8.55C59.56 8.27 59.33 8.05 59.05 8.05L56.91 8.05L56.91 5.40L58.67 5.40C58.95 5.40 59.18 5.18 59.18 4.90L59.18 4.52C59.18 4.24 58.95 4.02 58.67 4.02L56.91 4.02L56.91 1.39L59.05 1.39C59.33 1.39 59.56 1.16 59.56 0.88L59.56 0.50C59.56 0.22 59.33 0 59.05 0ZM64.61 9.44C64.89 9.44 65.11 9.21 65.11 8.93L65.11 0.50C65.11 0.22 64.89 0 64.61 0L64.22 0C63.94 0 63.71 0.22 63.71 0.50L63.71 5.12L61.77 0.31C61.71 0.15 61.49 0 61.31 0L60.97 0C60.70 0 60.47 0.22 60.47 0.50L60.47 8.93C60.47 9.21 60.70 9.44 60.97 9.44L61.38 9.44C61.64 9.44 61.88 9.21 61.88 8.93L61.88 4.31L63.83 9.13C63.88 9.28 64.12 9.44 64.29 9.44ZM70.03 9.04C70.08 9.25 70.31 9.44 70.52 9.44L70.92 9.44C71.26 9.44 71.48 9.14 71.41 8.82L69.48 0.39C69.44 0.18 69.20 0 68.99 0L68.68 0C68.47 0 68.25 0.18 68.19 0.39L66.92 5.87L66.25 8.83C66.18 9.16 66.40 9.44 66.74 9.44L67.14 9.44C67.35 9.44 67.58 9.25 67.63 9.04L68.12 6.86L69.55 6.86ZM68.84 3.23C69.10 4.42 69.08 4.80 69.23 5.47L68.45 5.47ZM75.99 9.44C76.27 9.44 76.50 9.21 76.50 8.93L76.50 0.50C76.50 0.22 76.27 0 75.99 0L75.60 0C75.32 0 75.10 0.22 75.10 0.50L75.10 5.12L73.15 0.31C73.09 0.15 72.87 0 72.69 0L72.35 0C72.09 0 71.85 0.22 71.85 0.50L71.85 8.93C71.85 9.21 72.09 9.44 72.35 9.44L72.76 9.44C73.02 9.44 73.26 9.21 73.26 8.93L73.26 4.31L75.21 9.13C75.26 9.28 75.50 9.44 75.67 9.44ZM80.32 4.70C79.49 4.70 79.53 6.10 80.32 6.10L80.81 6.10L80.81 6.71C80.81 7.62 80.51 8.05 79.91 8.05C79.30 8.05 79.00 7.62 79.00 6.71C79.00 6.34 79.00 4.94 79.00 2.72C79.00 2.07 79.13 1.74 79.32 1.57C79.48 1.41 79.72 1.39 79.91 1.39C80.11 1.39 80.33 1.41 80.50 1.57C80.67 1.72 80.81 2.06 80.81 2.72L80.81 2.91C80.81 3.19 81.03 3.42 81.31 3.42L81.72 3.42C81.98 3.42 82.21 3.19 82.21 2.91L82.21 2.72C82.21 0.94 81.45 0 79.91 0C78.37 0 77.60 0.94 77.60 2.72L77.60 6.71C77.60 8.47 78.37 9.44 79.91 9.44C81.45 9.44 82.21 8.48 82.21 6.71L82.21 5.21C82.21 4.93 81.98 4.70 81.72 4.70L80.32 4.70ZM84.52 0.49C84.52 0.21 84.29-0.01 84.01-0.01L83.62-0.01C83.36-0.01 83.13 0.21 83.13 0.49L83.13 7C83.13 7.27 83.36 7.50 83.62 7.50L84.01 7.50C84.29 7.50 84.52 7.27 84.52 7ZM83.62 7.88C83.36 7.88 83.13 8.11 83.13 8.39L83.13 8.92C83.13 9.20 83.36 9.42 83.62 9.42L84.01 9.42C84.29 9.42 84.52 9.20 84.52 8.92L84.52 8.39C84.52 8.11 84.29 7.88 84.01 7.88Z"></path></g><defs data-v-423bf9ae=""><linearGradient data-v-423bf9ae="" gradientTransform="rotate(25)" id="f63172b7-41f6-441a-b2ec-9ccb143fae30" x1="0%" y1="0%" x2="100%" y2="0%"><stop data-v-423bf9ae="" offset="0%" style="stop-color: rgb(251, 255, 0); stop-opacity: 1;"></stop><stop data-v-423bf9ae="" offset="100%" style="stop-color: rgb(0, 56, 255); stop-opacity: 1;"></stop></linearGradient></defs><g data-v-423bf9ae="" id="0ee1a4ac-8499-40d6-bf18-8e0e6a11b7ff" transform="matrix(2.4354161494594293,0,0,2.4354161494594293,147.0648836758928,-76.10508214632331)" stroke="none" fill="url(#f63172b7-41f6-441a-b2ec-9ccb143fae30)"><g stroke-width="1.3" stroke-linecap="round" stroke-miterlimit="10"><path d="M7.261 60.466h44.177M29.349 31.423v35.955M29.349 39.671l-20.36 20.36M29.007 44.827L13.461 60.372M29.349 39.671l20.36 20.36M29.692 44.827l15.544 15.545M27.754 34.497h3.222M28.308 32.886h2.113M29.112 49.725L18.345 60.49M29.587 49.725L40.354 60.49M49.955 60.486h44.176M72.043 31.444v35.955M72.043 39.692L51.684 60.053M71.699 44.848L56.155 60.393M72.043 39.692l20.36 20.361M72.386 44.848l15.545 15.545M71.805 49.747L61.038 60.513M72.279 49.747l10.768 10.766M91.2 64.095c-2.389 2.39-4.98 0-4.98 0h-.043c-2.392 2.39-4.981 0-4.981 0M91.2 67.315c-2.389 2.391-4.98 0-4.98 0h-.043c-2.392 2.391-4.981 0-4.981 0M60.912 64.095c-2.388 2.39-4.981 0-4.981 0h-.042c-2.389 2.39-4.981 0-4.981 0M60.912 67.315c-2.388 2.391-4.981 0-4.981 0h-.042c-2.389 2.391-4.981 0-4.981 0"></path><g><path d="M50.505 64.095c-2.39 2.39-4.982 0-4.982 0h-.043c-2.389 2.39-4.981 0-4.981 0M50.505 67.315c-2.39 2.391-4.982 0-4.982 0h-.043c-2.389 2.391-4.981 0-4.981 0"></path></g><g><path d="M19.323 64.095c-2.389 2.39-4.981 0-4.981 0h-.043c-2.39 2.39-4.981 0-4.981 0M19.323 67.315c-2.389 2.391-4.981 0-4.981 0h-.043c-2.39 2.391-4.981 0-4.981 0"></path></g><g><path d="M70.432 34.305h3.221M70.985 32.695H73.1"></path></g><g><path d="M6.022 38.996l1.56-.92 1.49 1.595M12.182 38.996l-1.56-.92-1.491 1.595"></path></g><g><path d="M49.958 39.794l1.56-.92 1.491 1.595M56.119 39.794l-1.559-.92-1.493 1.595"></path></g></g></g><defs data-v-423bf9ae=""><linearGradient data-v-423bf9ae="" gradientTransform="rotate(25)" id="1126aeb6-28d3-43d2-92ad-03fe1d4995ab" x1="0%" y1="0%" x2="100%" y2="0%"><stop data-v-423bf9ae="" offset="0%" style="stop-color: rgb(0, 223, 255); stop-opacity: 1;"></stop><stop data-v-423bf9ae="" offset="100%" style="stop-color: rgb(167, 255, 0); stop-opacity: 1;"></stop></linearGradient></defs><g data-v-423bf9ae="" id="347e3634-3287-45ca-92da-a236eb5f66da" fill="url(#1126aeb6-28d3-43d2-92ad-03fe1d4995ab)" transform="matrix(1.61028139435293,0,0,1.61028139435293,67.59526177338125,196.0332599163905)"><path d="M0.87 3.64L0.38 3.64L0.38 3.08L3.89 3.08L3.88 3.64L3.14 3.64Q2.80 3.64 2.80 3.82L2.80 3.82Q2.80 3.98 2.99 4.48L2.99 4.48L5.60 10.94L8.54 4.18Q8.61 3.97 8.61 3.92L8.61 3.92Q8.61 3.79 8.51 3.74Q8.42 3.68 8.27 3.65L8.27 3.65Q8.19 3.64 7.92 3.64L7.92 3.64L7.48 3.64L7.45 3.08L10.29 3.08L10.26 3.64L9.86 3.64Q9.54 3.64 9.38 3.83L9.38 3.83Q9.30 3.93 8.83 4.94L8.83 4.94Q8.62 5.46 8.55 5.57L8.55 5.57L5.42 12.63L5.18 12.63L1.93 4.73Q1.61 3.93 1.47 3.79L1.47 3.79Q1.31 3.63 0.87 3.64L0.87 3.64ZM18.61 3.64L18.03 3.64L18.04 3.08L21.55 3.08L21.55 3.64L21.32 3.64Q20.77 3.64 20.60 3.73L20.60 3.73Q20.47 3.81 20.47 4.28L20.47 4.28L20.47 11.22Q20.47 11.68 20.58 11.77Q20.69 11.87 21.22 11.87L21.22 11.87L21.77 11.87L21.78 12.41L18.20 12.41L18.18 11.87L18.55 11.87Q19.11 11.87 19.22 11.77Q19.33 11.67 19.33 11.25L19.33 11.25L19.33 4.14Q19.33 3.77 19.23 3.71L19.23 3.71Q19.12 3.64 18.61 3.64L18.61 3.64ZM29.49 10.04L29.49 10.04L29.98 9.98L30.17 10.85Q30.28 11.33 30.34 11.41Q30.41 11.49 30.82 11.64L30.82 11.64Q31.66 11.95 32.56 11.95L32.56 11.95Q33.35 11.95 33.89 11.49L33.89 11.49Q34.42 11.04 34.42 10.26L34.42 10.26Q34.42 9.65 33.96 9.21L33.96 9.21Q33.48 8.76 32.63 8.30L32.63 8.30L32.05 7.98Q31.31 7.55 31.08 7.36L31.08 7.36Q30.71 7.08 30.40 6.59Q30.09 6.10 30.09 5.46L30.09 5.46Q30.09 4.39 30.93 3.68Q31.77 2.97 32.88 2.97L32.88 2.97Q33.16 2.97 33.51 3.04L33.51 3.04Q33.71 3.08 34.04 3.17L34.04 3.17L34.28 3.25Q34.38 3.25 34.42 3.16L34.42 3.16Q34.47 3.05 34.47 2.98L34.47 2.98L34.49 2.88L34.97 2.85L35.18 5.41L34.67 5.43L34.55 4.18Q33.80 3.62 32.64 3.62L32.64 3.62Q32.00 3.62 31.49 4.05L31.49 4.05Q31.01 4.47 31.01 5.12L31.01 5.12Q31.01 5.72 31.47 6.17L31.47 6.17Q31.90 6.60 32.76 7.08L32.76 7.08L33.54 7.50Q34.49 8.03 35.02 8.59Q35.55 9.15 35.55 9.92L35.55 9.92Q35.55 10.99 34.70 11.76L34.70 11.76Q33.83 12.54 32.38 12.54L32.38 12.54Q31.81 12.54 31.31 12.41Q30.81 12.29 30.75 12.29L30.75 12.29Q30.50 12.29 30.50 12.58L30.50 12.58L30.52 12.76L30.04 12.80Q29.98 12.41 29.49 10.04ZM44.32 3.64L43.74 3.64L43.75 3.08L47.26 3.08L47.26 3.64L47.03 3.64Q46.48 3.64 46.31 3.73L46.31 3.73Q46.18 3.81 46.18 4.28L46.18 4.28L46.18 11.22Q46.18 11.68 46.29 11.77Q46.40 11.87 46.93 11.87L46.93 11.87L47.48 11.87L47.49 12.41L43.91 12.41L43.89 11.87L44.26 11.87Q44.82 11.87 44.93 11.77Q45.04 11.67 45.04 11.25L45.04 11.25L45.04 4.14Q45.04 3.77 44.94 3.71L44.94 3.71Q44.83 3.64 44.32 3.64L44.32 3.64ZM55.51 5.35L55.01 5.33Q55.13 4.17 55.21 3.08L55.21 3.08L63.29 3.08Q63.21 4.13 63.18 4.53L63.18 4.53Q63.14 5.26 63.12 5.32L63.12 5.32L62.62 5.30Q62.71 4.34 62.71 4.16L62.71 4.16Q62.71 3.88 62.56 3.79L62.56 3.79Q62.39 3.69 61.99 3.69L61.99 3.69L60.38 3.69Q59.88 3.69 59.75 3.79L59.75 3.79Q59.66 3.87 59.65 4.36L59.65 4.36L59.65 11.22Q59.65 11.66 59.79 11.76L59.79 11.76Q59.95 11.87 60.46 11.87L60.46 11.87L61.02 11.87L61.04 12.41L57.35 12.40L57.35 11.87L57.57 11.87Q58.24 11.87 58.38 11.79Q58.52 11.70 58.52 11.28L58.52 11.28L58.52 4.48Q58.52 3.92 58.42 3.80Q58.32 3.69 57.90 3.69L57.90 3.69L56.43 3.69Q56.25 3.69 56.18 3.71Q56.11 3.72 56 3.72L56 3.72Q55.97 3.72 55.86 3.79L55.86 3.79Q55.77 3.84 55.75 3.86Q55.72 3.88 55.68 3.99L55.68 3.99Q55.65 4.05 55.62 4.14L55.62 4.14Q55.60 4.21 55.58 4.36L55.58 4.36Q55.55 4.59 55.55 4.61L55.55 4.61Q55.55 4.80 55.54 4.95L55.54 4.95Q55.54 5.02 55.53 5.15Q55.52 5.29 55.51 5.35L55.51 5.35ZM84.33 12.41L80.60 12.41L80.60 11.87L81.04 11.87Q81.42 11.87 81.47 11.81L81.47 11.81Q81.54 11.74 81.55 11.46L81.55 11.46L81.55 4.14Q81.55 3.81 81.46 3.72Q81.38 3.64 81.01 3.64L81.01 3.64L80.64 3.64L80.66 3.08L83.54 3.08Q84.69 3.08 85.34 3.19L85.34 3.19Q85.94 3.28 86.41 3.68L86.41 3.68Q87.60 4.64 87.60 6.19L87.60 6.19Q87.60 7.23 86.84 7.98L86.84 7.98Q86.06 8.74 84.65 8.73L84.65 8.73Q84.48 8.73 84.06 8.70L84.06 8.70Q83.95 8.69 83.53 8.62L83.53 8.62Q83.19 8.55 83.10 8.54L83.10 8.54Q82.80 8.47 82.79 8.46L82.79 8.46L82.67 8.44L82.67 11.46Q82.67 11.74 82.80 11.81L82.80 11.81Q82.91 11.87 83.63 11.87L83.63 11.87L84.33 11.87L84.33 12.41ZM82.67 4.28L82.67 8.02Q83.02 8.29 83.99 8.29L83.99 8.29Q85.13 8.29 85.70 7.75L85.70 7.75Q86.29 7.21 86.29 6.16L86.29 6.16Q86.29 4.98 85.38 4.31L85.38 4.31Q84.49 3.64 83.10 3.64L83.10 3.64Q82.84 3.64 82.76 3.75L82.76 3.75Q82.68 3.84 82.67 4.28L82.67 4.28ZM95.59 3.64L95.58 3.08L102.79 3.08Q102.81 4.14 102.86 5.28L102.86 5.28L102.31 5.30Q102.30 4.66 102.25 4.25L102.25 4.25Q102.20 3.89 102.15 3.80L102.15 3.80Q102.09 3.71 101.98 3.69L101.98 3.69Q101.88 3.68 101.29 3.68L101.29 3.68L98.92 3.68Q98.37 3.68 98.23 3.77L98.23 3.77Q98.10 3.86 98.10 4.33L98.10 4.33L98.10 6.28Q98.10 6.69 98.16 6.76L98.16 6.76Q98.23 6.84 98.57 6.84L98.57 6.84L100.68 6.84Q101.04 6.84 101.12 6.73L101.12 6.73Q101.21 6.63 101.21 6.14L101.21 6.14L101.21 5.61L101.73 5.63L101.73 8.97L101.21 8.97L101.21 8.24Q101.21 7.66 101.14 7.57L101.14 7.57Q101.06 7.46 100.71 7.46L100.71 7.46L98.61 7.46Q98.27 7.46 98.19 7.54Q98.10 7.63 98.10 7.89L98.10 7.89L98.10 11.20Q98.10 11.57 98.19 11.67Q98.27 11.77 98.55 11.77L98.55 11.77Q101.47 11.75 101.99 11.69L101.99 11.69Q102.51 11.63 102.59 11.38L102.59 11.38L102.60 11.36L102.61 11.35L102.83 10.17L103.31 10.25L102.96 12.41L95.86 12.41L95.86 11.87L96.23 11.87Q96.79 11.87 96.87 11.80L96.87 11.80Q96.97 11.72 96.97 11.33L96.97 11.33L96.97 4.24Q96.97 3.82 96.82 3.73L96.82 3.73Q96.65 3.64 95.99 3.64L95.99 3.64L95.59 3.64ZM111.20 3.64L111.19 3.08L113.36 3.08L119.10 10.48L119.10 4.14Q119.10 3.81 118.94 3.72Q118.79 3.64 118.33 3.64L118.33 3.64L117.84 3.64L117.87 3.08L120.85 3.08L120.85 3.64L120.52 3.64Q120.06 3.64 119.91 3.75Q119.76 3.86 119.76 4.25L119.76 4.25L119.76 12.32L119.76 12.47Q119.76 12.52 119.75 12.57Q119.73 12.61 119.70 12.64L119.70 12.64Q119.68 12.65 119.63 12.65L119.63 12.65L119.44 12.65L119.38 12.65L119.35 12.65L119.32 12.64Q119.29 12.64 119.28 12.63Q119.27 12.61 119.27 12.60Q119.27 12.58 119.25 12.57L119.25 12.57Q119.23 12.54 119.20 12.50L119.20 12.50Q119.18 12.48 119.16 12.45Q119.14 12.41 119.13 12.40L119.13 12.40L113.03 4.56L113.09 11.22Q113.09 11.67 113.26 11.77L113.26 11.77Q113.42 11.87 114.13 11.87L114.13 11.87L114.37 11.87L114.37 12.41L111.43 12.41L111.43 11.87L111.85 11.87Q112.23 11.87 112.33 11.76L112.33 11.76Q112.43 11.66 112.44 11.25L112.44 11.25L112.44 3.80L112.29 3.64L111.20 3.64ZM128.60 12.41L128.58 11.87L128.75 11.87Q129.14 11.87 129.27 11.73L129.27 11.73Q129.40 11.57 129.73 10.83L129.73 10.83L130.64 8.82L131.22 7.53Q131.48 6.97 131.52 6.86L131.52 6.86Q131.59 6.70 131.64 6.60Q131.69 6.51 131.71 6.45L131.71 6.45L131.80 6.21L133.23 2.74L133.53 2.74Q134.38 4.98 136.57 10.25L136.57 10.25Q137.02 11.34 137.21 11.64L137.21 11.64Q137.35 11.87 137.79 11.87L137.79 11.87L138.00 11.87L137.98 12.41L134.79 12.41L134.80 11.87L135.22 11.87Q135.84 11.87 135.84 11.70L135.84 11.70Q135.84 11.63 135.70 11.27L135.70 11.27L134.66 8.72L131.41 8.72L130.31 11.18Q130.17 11.50 130.17 11.63L130.17 11.63Q130.17 11.79 130.27 11.83Q130.36 11.87 130.74 11.87L130.74 11.87L131.32 11.87L131.32 12.41L128.60 12.41ZM133.10 4.79L131.68 8.10L134.42 8.10L133.10 4.79ZM145.74 3.64L145.73 3.08L147.90 3.08L153.64 10.48L153.64 4.14Q153.64 3.81 153.48 3.72Q153.33 3.64 152.87 3.64L152.87 3.64L152.38 3.64L152.41 3.08L155.39 3.08L155.39 3.64L155.07 3.64Q154.60 3.64 154.45 3.75Q154.30 3.86 154.30 4.25L154.30 4.25L154.30 12.32L154.30 12.47Q154.30 12.52 154.29 12.57Q154.27 12.61 154.24 12.64L154.24 12.64Q154.23 12.65 154.17 12.65L154.17 12.65L153.98 12.65L153.92 12.65L153.89 12.65L153.86 12.64Q153.84 12.64 153.82 12.63Q153.81 12.61 153.81 12.60Q153.81 12.58 153.79 12.57L153.79 12.57Q153.77 12.54 153.74 12.50L153.74 12.50Q153.73 12.48 153.71 12.45Q153.69 12.41 153.67 12.40L153.67 12.40L147.57 4.56L147.64 11.22Q147.64 11.67 147.80 11.77L147.80 11.77Q147.96 11.87 148.67 11.87L148.67 11.87L148.91 11.87L148.91 12.41L145.97 12.41L145.97 11.87L146.39 11.87Q146.77 11.87 146.88 11.76L146.88 11.76Q146.97 11.66 146.98 11.25L146.98 11.25L146.98 3.80L146.84 3.64L145.74 3.64ZM163.51 8.24L163.51 8.24Q163.51 6.92 164.12 5.72Q164.74 4.52 165.97 3.72L165.97 3.72Q167.21 2.92 168.83 2.92L168.83 2.92Q170.10 2.92 171.68 3.57L171.68 3.57L171.68 2.86L172.25 2.86L172.34 5.92L171.79 5.93L171.70 4.48Q171.62 4.41 171.34 4.24L171.34 4.24Q171.09 4.07 170.34 3.83L170.34 3.83Q169.61 3.60 168.71 3.60L168.71 3.60Q167.73 3.60 166.96 3.93Q166.20 4.27 165.73 4.83L165.73 4.83Q165.27 5.39 165.02 6.08L165.02 6.08Q164.77 6.78 164.77 7.57L164.77 7.57Q164.77 9.33 165.89 10.69Q167.01 12.05 168.87 12.05L168.87 12.05Q169.57 12.05 170.20 11.85Q170.83 11.66 171.05 11.48L171.05 11.48L171.29 11.28L171.29 8.78L169.63 8.78L169.61 8.23L173.48 8.23L173.49 8.78L172.42 8.78L172.42 11.64L171.64 11.98Q170.94 12.30 170.71 12.39L170.71 12.39Q170.46 12.48 169.82 12.61L169.82 12.61Q169.21 12.74 168.60 12.74L168.60 12.74Q167.30 12.74 166.33 12.37L166.33 12.37Q165.34 12.00 164.73 11.36L164.73 11.36Q164.14 10.76 163.82 9.94L163.82 9.94Q163.51 9.15 163.51 8.24ZM190.81 3.64L190.80 3.08L192.97 3.08L198.71 10.48L198.71 4.14Q198.71 3.81 198.55 3.72Q198.40 3.64 197.94 3.64L197.94 3.64L197.45 3.64L197.48 3.08L200.46 3.08L200.46 3.64L200.14 3.64Q199.67 3.64 199.52 3.75Q199.37 3.86 199.37 4.25L199.37 4.25L199.37 12.32L199.37 12.47Q199.37 12.52 199.36 12.57Q199.34 12.61 199.31 12.64L199.31 12.64Q199.29 12.65 199.24 12.65L199.24 12.65L199.05 12.65L198.99 12.65L198.96 12.65L198.93 12.64Q198.91 12.64 198.89 12.63Q198.88 12.61 198.88 12.60Q198.88 12.58 198.86 12.57L198.86 12.57Q198.84 12.54 198.81 12.50L198.81 12.50Q198.80 12.48 198.78 12.45Q198.75 12.41 198.74 12.40L198.74 12.40L192.64 4.56L192.71 11.22Q192.71 11.67 192.87 11.77L192.87 11.77Q193.03 11.87 193.74 11.87L193.74 11.87L193.98 11.87L193.98 12.41L191.04 12.41L191.04 11.87L191.46 11.87Q191.84 11.87 191.95 11.76L191.95 11.76Q192.04 11.66 192.05 11.25L192.05 11.25L192.05 3.80L191.91 3.64L190.81 3.64ZM208.58 7.83L208.58 7.83Q208.58 6.62 208.98 5.68L208.98 5.68Q209.40 4.72 210.09 4.12L210.09 4.12Q210.78 3.51 211.64 3.19L211.64 3.19Q212.48 2.88 213.43 2.88L213.43 2.88Q214.69 2.88 215.74 3.40L215.74 3.40Q216.82 3.93 217.53 5.07L217.53 5.07Q218.23 6.17 218.24 7.75L218.24 7.75Q218.24 8.70 217.93 9.54Q217.62 10.38 217.02 11.10Q216.41 11.81 215.48 12.22L215.48 12.22Q214.51 12.63 213.32 12.64L213.32 12.64Q212.19 12.64 211.25 12.23Q210.31 11.83 209.75 11.14L209.75 11.14Q209.18 10.45 208.89 9.60L208.89 9.60Q208.58 8.72 208.58 7.83ZM209.84 7.38L209.84 7.38Q209.84 8.52 210.27 9.60L210.27 9.60Q210.67 10.64 211.60 11.33L211.60 11.33Q212.51 12.03 213.70 12.04L213.70 12.04Q215.07 12.04 216.01 11.01L216.01 11.01Q216.96 9.97 216.96 8.10L216.96 8.10Q216.96 5.99 215.80 4.72L215.80 4.72Q214.65 3.46 213.14 3.45L213.14 3.45Q212.62 3.45 212.07 3.65Q211.53 3.85 211.03 4.25L211.03 4.25Q210.48 4.68 210.16 5.48L210.16 5.48Q209.84 6.27 209.84 7.38ZM226.73 3.64L226.50 3.64L226.50 3.08L229.60 3.08L229.58 3.64L229.28 3.64Q228.45 3.64 228.45 3.94L228.45 3.94Q228.45 4.03 228.48 4.09L228.48 4.09L230.90 10.76L233.21 4.85L233.11 4.57Q233.08 4.52 233.06 4.44Q233.04 4.36 233.02 4.31Q233.00 4.25 232.99 4.22L232.99 4.22Q232.96 4.16 232.87 3.96L232.87 3.96Q232.78 3.80 232.67 3.71L232.67 3.71Q232.59 3.64 232.42 3.64L232.42 3.64L231.73 3.64L231.73 3.08L235.06 3.08L235.06 3.64L234.32 3.64Q234.09 3.64 234.03 3.68L234.03 3.68Q233.96 3.72 233.96 3.86Q233.95 4.00 234.21 4.76L234.21 4.76L236.25 10.72L238.75 4.18Q238.80 4.01 238.80 3.94L238.80 3.94Q238.80 3.75 238.63 3.69L238.63 3.69Q238.47 3.64 238.12 3.64L238.12 3.64L237.75 3.64L237.75 3.08L240.15 3.08L240.16 3.64L239.99 3.64Q239.64 3.64 239.54 3.77L239.54 3.77Q239.42 3.96 239.18 4.60L239.18 4.60L236.09 12.64L235.85 12.64L233.47 5.64L230.75 12.63L230.53 12.63L227.55 4.52Q227.34 3.96 227.18 3.79L227.18 3.79Q227.02 3.63 226.73 3.64L226.73 3.64ZM249.05 11.94L249.05 11.94Q249.05 11.80 249.29 11.57Q249.53 11.35 249.66 11.35L249.66 11.35Q249.83 11.35 250.04 11.57L250.04 11.57Q250.25 11.81 250.24 11.95L250.24 11.95Q250.24 12.11 250.02 12.33Q249.80 12.55 249.64 12.55L249.64 12.55Q249.50 12.55 249.28 12.33Q249.05 12.11 249.05 11.94ZM249.07 3.73L249.07 3.73Q249.07 3.47 249.42 3.37L249.42 3.37Q249.76 3.27 249.99 3.27L249.99 3.27Q250.17 3.27 250.17 3.42L250.17 3.42Q250.15 4.42 249.99 6.17L249.99 6.17Q249.81 8.15 249.80 8.86L249.80 8.86L249.80 9.24Q249.80 9.30 249.79 9.42Q249.79 9.53 249.79 9.56L249.79 9.56L249.79 9.81Q249.79 9.93 249.76 10.02L249.76 10.02Q249.76 10.04 249.74 10.09Q249.73 10.14 249.72 10.16L249.72 10.16Q249.69 10.23 249.64 10.26L249.64 10.26Q249.59 10.29 249.55 10.29L249.55 10.29Q249.49 10.29 249.45 10.25L249.45 10.25Q249.40 10.21 249.38 10.13L249.38 10.13Q249.36 10.12 249.36 10.08Q249.36 10.04 249.35 10.01L249.35 10.01Q249.32 9.93 249.32 9.85L249.32 9.85L249.32 9.78Q249.07 6.65 249.07 3.73Z"></path></g></svg>